<?xml version="1.0" standalone="no"?>
<!DOCTYPE svg PUBLIC "-//W3C//DTD SVG 20010904//EN"
 "http://www.w3.org/TR/2001/REC-SVG-20010904/DTD/svg10.dtd">
<svg version="1.0" xmlns="http://www.w3.org/2000/svg"
 width="401.000000pt" height="401.000000pt" viewBox="0 0 401.000000 401.000000"
 preserveAspectRatio="xMidYMid meet">
<metadata>
Created by potrace 1.14, written by Peter Selinger 2001-2017
</metadata>
<g transform="translate(0.000000,401.000000) scale(0.100000,-0.100000)"
fill="#000000" stroke="none">
<path d="M0 3945 c0 -54 3 -63 15 -59 9 4 20 15 26 25 5 11 16 19 24 19 8 0
15 7 15 15 0 8 9 15 20 15 11 0 20 5 20 10 0 6 -9 10 -20 10 -27 0 -25 18 3
23 12 2 -6 5 -40 6 l-63 1 0 -65z"/>
<path d="M130 4000 c0 -5 9 -10 20 -10 11 0 20 5 20 10 0 6 -9 10 -20 10 -11
0 -20 -4 -20 -10z"/>
<path d="M3520 3994 c0 -14 3 -14 15 -4 8 7 15 14 15 16 0 2 -7 4 -15 4 -8 0
-15 -7 -15 -16z"/>
<path d="M3578 3983 c8 -43 28 -58 58 -44 24 10 25 10 18 -11 -3 -13 -11 -28
-16 -35 -12 -15 1 -22 38 -21 16 1 44 -7 63 -16 19 -11 43 -15 57 -12 14 4 24
2 24 -4 0 -6 -14 -13 -30 -17 -17 -3 -29 -11 -27 -17 5 -16 46 -20 63 -6 9 8
14 9 14 2 0 -6 -10 -18 -22 -27 l-23 -16 25 2 c35 5 50 -8 50 -42 0 -18 5 -29
14 -29 8 0 17 -7 20 -16 3 -8 11 -12 17 -8 8 4 9 0 4 -15 -5 -18 -2 -21 19
-21 25 0 26 -2 20 -40 -5 -28 -3 -40 6 -40 6 0 14 9 17 20 3 11 9 20 13 20 5
0 9 95 10 210 l1 210 -219 0 -219 0 5 -27z"/>
<path d="M1287 3973 c-3 -17 1 -26 12 -29 45 -13 86 -45 107 -83 13 -23 24
-45 24 -50 0 -4 -17 -6 -37 -4 -21 2 -57 4 -80 6 -27 1 -50 10 -66 25 -14 14
-27 19 -31 14 -4 -7 -18 -5 -37 5 -28 14 -32 14 -47 0 -14 -15 -13 -15 8 -10
18 5 22 3 17 -9 -8 -21 3 -30 20 -17 10 9 13 8 13 -1 0 -6 10 -20 23 -31 l22
-18 -48 -1 c-39 0 -52 5 -71 25 -13 14 -30 25 -38 25 -9 0 -21 7 -28 15 -7 8
-16 13 -20 10 -5 -3 -11 -1 -15 4 -8 13 -193 3 -224 -12 -13 -7 -27 -19 -31
-27 -14 -29 -29 -65 -35 -87 -4 -13 -13 -23 -22 -23 -28 0 -73 -34 -73 -55 0
-16 2 -17 10 -5 5 8 12 11 16 7 4 -4 1 -15 -7 -24 -26 -33 -39 -62 -39 -88 0
-16 -21 -54 -52 -96 -29 -38 -53 -77 -54 -86 -2 -9 -10 -23 -19 -32 -16 -15
-17 -14 -6 6 15 30 14 52 -2 28 -22 -33 -47 -155 -48 -235 -1 -53 -7 -82 -19
-100 -25 -35 -31 -149 -13 -230 9 -39 13 -91 10 -129 -5 -59 1 -97 24 -146 9
-21 18 -56 49 -190 10 -44 32 -110 49 -147 17 -37 31 -74 31 -82 0 -8 20 -52
43 -98 24 -46 51 -110 60 -143 l16 -60 -4 80 c-3 44 -17 121 -31 170 -53 184
-54 189 -44 199 6 6 15 4 25 -4 17 -14 31 -8 20 9 -3 6 -11 9 -16 6 -5 -4 -9
6 -10 22 0 26 -1 26 -9 7 -20 -50 -43 -33 -54 40 -4 21 -9 42 -11 46 -3 5 -1
11 4 15 6 3 13 -11 16 -32 13 -78 24 -79 20 -3 -1 41 -5 82 -8 90 -5 13 -13
48 -34 145 -24 112 23 261 116 375 60 72 63 75 89 89 12 6 22 18 22 25 0 13
82 54 174 88 27 9 57 25 66 33 13 11 42 16 104 18 77 2 85 4 80 20 -5 14 -1
17 20 13 16 -3 26 0 26 7 0 15 89 17 91 2 1 -5 5 1 9 15 4 14 8 18 9 10 1 -13
17 -15 94 -14 50 0 97 -2 102 -5 6 -3 17 -6 25 -6 36 -1 100 -17 100 -26 0 -5
13 -6 28 -3 19 4 34 0 45 -10 17 -18 32 -22 22 -6 -10 16 2 12 20 -7 13 -13
19 -13 25 -4 5 9 10 10 14 2 4 -6 16 -11 27 -11 13 0 18 -4 13 -12 -5 -8 2 -9
24 -5 25 5 32 3 37 -13 4 -11 17 -23 31 -26 13 -3 24 -11 24 -16 0 -6 12 -22
26 -35 21 -20 26 -34 27 -79 2 -36 7 -58 17 -64 12 -8 12 -10 -3 -16 -20 -7
-23 -24 -4 -24 6 0 12 -13 13 -30 1 -34 -4 -37 -20 -15 -8 12 -11 1 -10 -46 0
-43 5 -65 15 -73 17 -12 42 -76 34 -85 -4 -3 -10 1 -14 8 -5 7 -14 10 -20 6
-9 -5 -9 -10 -1 -20 8 -10 8 -19 1 -34 -9 -16 -8 -22 6 -29 9 -6 18 -16 19
-23 2 -8 6 -25 9 -39 6 -23 5 -24 -8 -7 -8 9 -17 17 -20 17 -3 0 -27 14 -54
30 -46 29 -51 30 -98 19 -28 -6 -77 -12 -110 -13 -71 -3 -247 -45 -239 -57 3
-5 -2 -9 -10 -9 -9 0 -16 -6 -16 -12 0 -9 -4 -8 -10 2 -8 12 -10 12 -10 -5 0
-16 -2 -17 -9 -6 -13 21 -43 -5 -39 -33 2 -17 -2 -20 -20 -19 -13 2 -25 -4
-28 -12 -7 -18 -35 -20 -53 -2 -10 10 -11 9 -6 -4 7 -19 -31 -34 -42 -17 -8
15 -33 -20 -33 -46 0 -10 -3 -16 -7 -12 -5 4 -8 13 -8 19 0 7 -8 12 -18 12
-10 0 -23 8 -28 18 -6 9 -15 15 -20 11 -5 -3 -46 -7 -90 -10 -44 -2 -84 -6
-88 -8 -4 -3 -35 -6 -69 -7 -34 -1 -62 -7 -62 -12 0 -6 -3 -7 -7 -4 -3 4 -14
0 -24 -9 -16 -15 -56 -28 -120 -41 -14 -2 -31 -13 -37 -24 -21 -33 -50 -119
-41 -119 5 0 8 -8 7 -17 -3 -41 2 -64 13 -57 9 5 10 -8 7 -45 -3 -29 -2 -47 3
-40 9 15 49 20 49 6 0 -5 -9 -7 -20 -4 -11 3 -20 1 -20 -4 0 -5 14 -12 30 -15
33 -7 41 -24 11 -24 -21 0 -36 -26 -21 -35 6 -4 10 -2 10 3 0 13 62 34 69 24
3 -5 15 -12 25 -16 19 -6 19 -7 0 -20 -24 -18 -14 -29 16 -18 23 9 80 -11 88
-30 2 -5 28 -8 57 -8 55 0 140 36 158 66 4 8 14 14 21 14 7 0 26 14 43 30 21
21 33 27 36 18 3 -7 6 -4 6 7 1 11 13 33 27 48 23 25 25 35 24 105 -3 105 -3
106 21 133 19 22 65 38 53 18 -2 -4 6 -13 18 -20 29 -15 68 -58 68 -76 0 -7 4
-13 10 -13 5 0 7 -6 4 -14 -3 -7 2 -16 10 -19 9 -4 16 -12 16 -20 0 -19 58
-50 86 -44 13 2 24 1 24 -2 0 -9 104 -32 170 -38 67 -6 161 16 246 58 52 25
70 29 122 26 38 -2 63 1 65 7 3 7 9 7 19 -2 13 -10 17 -10 22 3 6 17 15 19 35
6 10 -7 11 -13 2 -30 -10 -18 -9 -21 6 -22 12 -1 10 -3 -7 -9 -21 -7 -22 -8
-5 -10 16 -1 15 -3 -7 -12 -16 -5 -28 -16 -28 -24 0 -8 -4 -14 -10 -14 -5 0
-10 -4 -10 -10 0 -5 11 -10 25 -10 14 0 25 -5 25 -11 0 -6 -7 -9 -15 -5 -19 7
-19 -13 0 -38 10 -13 11 -24 5 -36 -7 -13 -5 -22 5 -30 21 -17 31 -5 14 16
-12 15 -12 17 1 12 8 -2 15 -16 15 -29 0 -22 -4 -24 -38 -21 -23 2 -49 -3 -63
-12 -13 -9 -31 -16 -40 -16 -13 0 -14 -3 -4 -15 10 -12 10 -15 -3 -15 -8 0
-18 -10 -22 -22 -19 -56 -23 -63 -24 -47 -1 20 -28 33 -37 18 -3 -6 -12 -8
-20 -5 -7 3 -16 1 -19 -4 -8 -12 -56 -2 -70 15 -5 6 -16 10 -24 7 -10 -3 -12
1 -8 17 3 11 1 19 -4 15 -5 -3 -9 3 -9 12 0 14 -3 15 -12 6 -19 -19 -31 -14
-26 12 4 21 -1 27 -38 41 -24 9 -47 22 -51 29 -5 7 -17 15 -28 19 -11 3 -35
10 -52 15 -43 14 -43 -1 1 -42 57 -53 55 -126 -4 -134 -14 -2 -30 -8 -36 -13
-6 -5 -13 -6 -16 -3 -9 8 -89 -17 -119 -37 -14 -10 -45 -21 -68 -25 -22 -4
-41 -11 -41 -16 0 -6 -8 -7 -17 -3 -23 10 -63 8 -77 -4 -6 -5 -20 -11 -31 -13
-11 -1 -23 -7 -26 -11 -9 -12 -57 10 -63 30 -8 26 -8 74 0 108 7 28 4 27 -49
-25 -31 -29 -58 -64 -62 -77 -3 -13 -10 -23 -15 -23 -6 0 -10 -7 -10 -15 0 -9
-11 -21 -25 -27 -14 -6 -25 -17 -25 -25 0 -7 -4 -13 -9 -13 -5 0 -12 -20 -16
-45 -4 -28 -16 -55 -31 -70 -13 -13 -24 -30 -24 -36 0 -17 -13 -2 -16 17 -1 8
5 18 14 21 19 7 32 23 32 38 0 6 -3 6 -8 -1 -12 -17 -75 -39 -79 -27 -2 5 -10
19 -18 29 -13 17 -14 18 -15 2 0 -25 -21 -23 -27 2 -7 27 -23 25 -24 -2 0 -19
-3 -17 -16 12 -8 19 -19 37 -23 40 -5 3 -11 22 -15 42 -4 21 -13 42 -20 48
-11 9 -12 7 -8 -11 4 -15 2 -20 -5 -15 -12 7 0 -42 19 -77 11 -20 -16 -66 -40
-67 -9 0 -11 -7 -7 -22 3 -13 6 -31 6 -40 0 -12 5 -15 17 -11 13 5 15 2 10
-11 -4 -10 -10 -30 -13 -44 -4 -21 -3 -23 5 -12 8 11 9 8 6 -15 -2 -17 -4 -36
-4 -42 -1 -19 -19 -16 -24 5 -4 13 -5 12 -6 -5 0 -12 4 -25 10 -29 6 -3 9 -15
6 -25 -3 -11 -1 -17 4 -13 5 3 9 -11 9 -30 0 -22 -5 -36 -12 -36 -7 0 -19 -12
-25 -27 -17 -35 -16 -44 2 -37 18 7 20 -17 3 -34 -9 -9 -7 -12 12 -12 18 0 21
-3 12 -12 -8 -8 -15 -8 -26 1 -16 14 -56 6 -56 -10 0 -6 9 -7 20 -4 38 12 20
-5 -27 -25 -27 -12 -78 -36 -115 -55 -43 -22 -65 -29 -61 -19 3 7 11 14 19 14
8 0 14 4 14 8 0 5 16 14 35 22 19 7 32 17 29 21 -2 4 3 15 12 24 9 9 13 19 10
23 -4 3 -19 -6 -34 -21 -43 -44 -74 -67 -89 -67 -7 0 -13 -11 -13 -24 0 -28
-21 -39 -52 -27 l-23 8 23 7 c12 4 27 4 33 0 8 -4 9 -3 5 4 -10 16 -53 15 -59
0 -4 -10 -8 -9 -16 2 -7 10 -6 17 2 22 7 4 -1 8 -20 8 -17 0 -35 -5 -38 -11
-4 -6 -13 -8 -21 -5 -8 3 -14 1 -14 -5 0 -7 14 -8 40 -4 25 4 40 3 40 -3 0 -6
-3 -12 -7 -15 -5 -2 -3 -2 4 -1 7 2 18 -3 25 -10 8 -7 20 -15 28 -19 11 -4 11
-6 2 -6 -7 -1 -23 4 -34 10 -15 8 -19 8 -14 0 4 -6 0 -12 -11 -12 -47 -4 -71
-8 -103 -18 -46 -14 -55 -14 -41 2 6 8 8 17 4 21 -19 18 -9 36 23 42 37 7 44
18 18 28 -9 3 -31 -3 -48 -14 -32 -19 -32 -19 -49 0 -9 11 -27 20 -39 20 -19
0 -18 -3 13 -26 l34 -25 -30 7 c-16 4 -35 11 -42 16 -7 5 -17 6 -24 2 -8 -4
-4 -11 12 -20 22 -12 23 -13 4 -14 -12 0 -26 5 -32 11 -9 9 -12 -100 -13 -435
l-1 -446 2006 0 2005 0 0 669 0 669 -102 12 c-57 6 -116 16 -133 21 -177 58
-493 94 -559 65 -17 -8 -52 -19 -78 -24 -50 -10 -36 -16 -182 81 -31 20 -59
37 -62 37 -3 0 -20 7 -37 15 -18 8 -58 24 -90 35 -31 12 -61 30 -67 39 -5 10
-32 35 -59 56 -42 33 -48 41 -40 57 6 11 8 31 4 47 -4 21 0 32 20 51 38 36 45
76 35 208 -5 64 -7 147 -3 183 10 115 -50 262 -112 274 -11 2 -22 4 -25 4 -3
1 -6 38 -6 84 -1 45 -5 111 -9 147 -4 36 -8 85 -10 110 -1 25 -12 67 -24 94
-17 39 -18 47 -6 42 14 -5 14 -2 0 24 -8 16 -12 36 -9 45 4 9 -2 23 -16 35
-13 11 -20 23 -16 28 4 4 13 -1 20 -11 19 -24 29 -21 22 7 -4 15 -1 26 7 29 7
2 -8 24 -38 56 -27 28 -57 66 -65 84 -18 41 -89 131 -112 143 -9 5 -43 25 -74
43 -32 19 -69 34 -82 33 -13 -1 -36 5 -51 13 -16 8 -31 12 -33 10 -2 -3 -3 9
0 25 4 26 -5 38 -67 100 -39 38 -71 72 -71 76 0 3 -23 29 -50 56 -45 45 -54
50 -84 45 -23 -4 -42 1 -61 13 -16 10 -51 22 -78 25 -37 6 -64 18 -100 46 -27
22 -53 36 -59 33 -5 -3 -15 2 -22 11 -7 10 -18 16 -24 14 -18 -6 2 -28 28 -31
29 -3 60 -27 60 -45 0 -15 -16 -17 -25 -3 -3 6 -14 10 -23 10 -9 0 -28 11 -40
25 -13 14 -41 30 -63 36 -21 7 -39 16 -39 22 0 9 28 6 65 -8 14 -6 17 -5 10 3
-5 5 -26 15 -47 20 -34 9 -36 8 -41 -15z m538 -256 c3 -18 7 -43 9 -57 2 -14
7 -33 11 -42 11 -28 -3 -21 -18 10 -16 30 -29 134 -16 126 5 -2 11 -19 14 -37z
m115 -113 c0 -7 7 -14 15 -18 17 -6 21 -76 4 -76 -6 0 -9 13 -8 28 2 17 -3 36
-14 46 -9 10 -17 21 -17 26 0 5 -3 17 -6 27 -6 16 -5 16 9 -2 9 -11 17 -25 17
-31z m180 -138 c0 -2 -13 -6 -30 -8 -16 -3 -30 -1 -30 4 0 4 14 8 30 8 17 0
30 -2 30 -4z m8 -973 c16 -16 16 -16 0 -11 -9 4 -19 2 -21 -5 -2 -7 -7 -9 -11
-6 -7 6 2 39 11 39 2 0 12 -8 21 -17z m162 -283 c0 -5 -4 -10 -10 -10 -5 0
-10 5 -10 10 0 6 5 10 10 10 6 0 10 -4 10 -10z m317 -92 c-3 -8 -6 -5 -6 6 -1
11 2 17 5 13 3 -3 4 -12 1 -19z m-1639 0 c-4 -12 -66 -33 -74 -25 -5 5 56 36
69 37 5 0 7 -5 5 -12z m67 -108 c-28 -12 -47 -12 -40 0 3 6 18 10 33 9 24 0
25 -1 7 -9z m-145 -54 c0 -3 -4 -8 -10 -11 -5 -3 -10 -1 -10 4 0 6 5 11 10 11
6 0 10 -2 10 -4z m1320 -116 c0 -5 -2 -10 -4 -10 -3 0 -8 5 -11 10 -3 6 -1 10
4 10 6 0 11 -4 11 -10z m-40 -60 c0 -5 -2 -10 -4 -10 -3 0 -8 5 -11 10 -3 6
-1 10 4 10 6 0 11 -4 11 -10z m368 -2 c13 -13 17 -48 6 -48 -10 0 -33 33 -34
48 0 15 12 16 28 0z m56 -3 c7 -18 -10 -20 -18 -2 -3 6 -4 0 -2 -15 2 -16 -1
-28 -5 -28 -10 0 -12 44 -2 53 10 11 20 8 27 -8z m-1418 -154 c-15 -14 -16
-13 -16 6 0 12 5 25 10 28 6 3 11 16 12 28 0 12 3 7 5 -12 3 -22 -1 -39 -11
-50z m73 -23 c19 -14 22 -22 16 -45 -4 -15 -10 -22 -12 -15 -3 6 -9 12 -14 12
-6 0 -7 -4 -4 -10 3 -5 1 -10 -4 -10 -6 0 -11 6 -11 13 0 8 -3 7 -9 -3 -6 -8
-7 -18 -4 -23 3 -5 -2 -7 -11 -5 -10 1 -17 6 -17 11 1 4 1 18 1 31 0 16 7 26
23 31 19 6 19 8 5 12 -10 2 -18 8 -18 12 0 13 33 7 59 -11z m-22 -108 c-4 -27
-17 -38 -17 -13 0 18 8 33 17 33 1 0 2 -9 0 -20z m923 1 c0 -5 -7 -14 -15 -21
-12 -10 -15 -10 -15 2 0 8 3 18 7 21 9 10 23 9 23 -2z m-900 -60 c0 -13 -26
-32 -33 -24 -8 7 11 33 24 33 5 0 9 -4 9 -9z m430 -65 c0 -3 -4 -8 -10 -11 -5
-3 -10 -1 -10 4 0 6 5 11 10 11 6 0 10 -2 10 -4z m-132 -13 c-10 -2 -18 -8
-18 -13 0 -5 6 -7 14 -4 20 8 27 -9 10 -24 -8 -7 -14 -8 -14 -2 0 5 -6 10 -13
10 -7 0 -18 9 -25 20 -11 19 -10 20 25 19 21 -1 30 -3 21 -6z m102 -9 c0 -8
-4 -12 -10 -9 -5 3 -10 10 -10 16 0 5 5 9 10 9 6 0 10 -7 10 -16z m-263 -26
c-3 -8 -6 -5 -6 6 -1 11 2 17 5 13 3 -3 4 -12 1 -19z m-317 -58 c0 -5 -4 -10
-10 -10 -5 0 -10 5 -10 10 0 6 5 10 10 10 6 0 10 -4 10 -10z m508 -28 c10 -14
9 -18 -10 -25 -12 -4 -34 -5 -48 -1 -14 4 -38 8 -55 9 -16 2 -38 6 -47 10 -13
5 -15 2 -11 -17 6 -20 5 -22 -10 -9 -9 7 -14 18 -10 24 4 6 -4 7 -23 3 -24 -6
-27 -5 -16 6 8 8 39 13 83 14 38 1 72 4 76 7 10 10 57 -4 71 -21z m-259 -8
c14 -11 21 -23 18 -35 -3 -10 3 -40 12 -65 14 -37 26 -50 57 -65 21 -10 48
-19 59 -19 17 -1 17 -3 -5 -13 -24 -10 -23 -11 17 -16 42 -6 47 -20 13 -34 -8
-4 5 -6 30 -4 l45 2 1 -52 c1 -29 -3 -50 -8 -47 -5 3 -15 0 -23 -6 -11 -9 -15
-9 -15 -1 0 6 7 14 15 18 9 3 15 13 13 22 -1 9 1 22 5 29 11 17 1 15 -23 -5
-11 -10 -20 -23 -20 -30 0 -7 -4 -13 -10 -13 -5 0 -7 14 -4 33 3 18 2 27 -3
21 -4 -7 -27 -17 -50 -24 -34 -11 -45 -11 -58 0 -18 15 -20 51 -3 68 9 9 8 12
-4 12 -9 0 -19 -8 -21 -17 -3 -10 -6 2 -7 27 -2 31 -4 37 -7 18 -5 -31 -33
-29 -33 2 0 10 -9 21 -19 25 -11 3 -22 19 -26 36 -4 19 -12 29 -20 25 -7 -2
-18 1 -24 7 -16 16 -13 47 5 47 10 0 14 7 13 23 -7 47 34 63 80 31z m176 -20
c25 -10 -1 -22 -33 -16 -24 5 -25 6 -7 13 11 4 21 8 22 8 1 1 9 -2 18 -5z
m-775 -120 c0 -8 -4 -12 -10 -9 -5 3 -10 13 -10 21 0 8 5 12 10 9 6 -3 10 -13
10 -21z m10 -34 c0 -5 -4 -10 -10 -10 -5 0 -10 5 -10 10 0 6 5 10 10 10 6 0
10 -4 10 -10z m1015 -30 c10 -11 24 -20 32 -20 7 0 13 -10 13 -22 0 -13 3 -34
6 -48 5 -23 4 -24 -9 -7 -11 14 -16 15 -20 5 -3 -7 -6 0 -6 15 -1 17 -5 26
-11 22 -6 -4 -8 -16 -4 -27 4 -15 2 -19 -7 -16 -8 3 -22 1 -31 -4 -15 -7 -18
-4 -19 14 -3 47 3 93 15 100 17 11 21 10 41 -12z m-75 -14 c0 -8 -7 -21 -15
-30 -8 -8 -15 -23 -15 -34 0 -10 -8 -26 -19 -36 -17 -15 -19 -15 -31 0 -11 13
-11 17 0 24 7 4 19 6 27 3 7 -3 13 0 13 7 0 7 -8 10 -20 7 -21 -5 -24 4 -11
38 7 18 8 18 18 1 12 -22 33 -13 33 15 0 10 5 19 10 19 6 0 10 -6 10 -14z
m180 -50 c0 -3 -4 -8 -10 -11 -5 -3 -10 -1 -10 4 0 6 5 11 10 11 6 0 10 -2 10
-4z m-186 -40 c-9 -15 -19 -24 -22 -22 -2 3 3 17 12 32 10 14 20 23 23 21 2
-3 -3 -17 -13 -31z m-77 -58 c-3 -7 -5 -2 -5 12 0 14 2 19 5 13 2 -7 2 -19 0
-25z m-1447 -2 c0 -2 -7 -6 -15 -10 -8 -3 -15 -1 -15 4 0 6 7 10 15 10 8 0 15
-2 15 -4z m210 -20 c0 -2 -7 -7 -16 -10 -8 -3 -12 -2 -9 4 6 10 25 14 25 6z
m-55 -33 c-39 -29 -55 -35 -49 -18 4 8 12 15 19 15 7 0 18 7 25 15 7 9 16 13
19 9 3 -3 -3 -12 -14 -21z m-145 -28 c-7 -8 -17 -12 -23 -8 -6 4 -3 9 9 14 27
11 28 11 14 -6z m66 -20 c-23 -17 -36 -19 -36 -6 0 5 10 12 23 14 12 2 24 5
27 5 3 1 -4 -5 -14 -13z m-61 -25 c-3 -5 -11 -10 -16 -10 -6 0 -7 5 -4 10 3 6
11 10 16 10 6 0 7 -4 4 -10z m2671 -662 c4 -6 2 -14 -4 -16 -7 -2 -12 -11 -12
-20 0 -10 -3 -13 -10 -6 -10 10 -2 54 11 54 4 0 11 -5 15 -12z"/>
<path d="M1700 1009 c0 -5 5 -7 10 -4 6 3 10 8 10 11 0 2 -4 4 -10 4 -5 0 -10
-5 -10 -11z"/>
<path d="M3688 3843 c7 -3 16 -2 19 1 4 3 -2 6 -13 5 -11 0 -14 -3 -6 -6z"/>
<path d="M3775 3720 c-3 -5 -1 -10 4 -10 6 0 11 5 11 10 0 6 -2 10 -4 10 -3 0
-8 -4 -11 -10z"/>
<path d="M3827 3711 c-3 -14 0 -21 9 -21 16 0 18 9 5 28 -6 10 -10 9 -14 -7z"/>
<path d="M2133 3553 c9 -2 23 -2 30 0 6 3 -1 5 -18 5 -16 0 -22 -2 -12 -5z"/>
<path d="M2075 3540 c-3 -5 -2 -10 4 -10 5 0 13 5 16 10 3 6 2 10 -4 10 -5 0
-13 -4 -16 -10z"/>
<path d="M611 2214 c0 -11 3 -14 6 -6 3 7 2 16 -1 19 -3 4 -6 -2 -5 -13z"/>
<path d="M678 1513 c7 -3 16 -2 19 1 4 3 -2 6 -13 5 -11 0 -14 -3 -6 -6z"/>
<path d="M600 1073 c-39 -15 -46 -65 -9 -56 12 4 16 9 10 12 -7 4 -3 12 9 21
32 23 26 36 -10 23z"/>
<path d="M258 1033 c-30 -8 -20 -20 12 -15 17 2 30 8 30 13 0 9 -13 10 -42 2z"/>
<path d="M340 1011 c0 -4 11 -6 25 -3 14 2 25 6 25 8 0 2 -11 4 -25 4 -14 0
-25 -4 -25 -9z"/>
<path d="M55 1000 c-3 -5 3 -10 14 -10 12 0 21 5 21 10 0 6 -6 10 -14 10 -8 0
-18 -4 -21 -10z"/>
<path d="M9 998 c-7 -29 -5 -36 7 -31 16 6 18 19 4 28 -5 3 -10 5 -11 3z"/>
<path d="M210 983 c-13 -15 -12 -16 4 -10 10 4 20 7 22 7 2 0 4 5 4 10 0 15
-13 12 -30 -7z"/>
<path d="M570 983 c0 -12 3 -14 8 -7 4 7 16 14 27 17 15 4 14 5 -7 6 -21 1
-28 -4 -28 -16z"/>
<path d="M310 980 c-9 -6 -10 -10 -3 -10 6 0 15 5 18 10 8 12 4 12 -15 0z"/>
<path d="M360 980 c-13 -9 -13 -10 0 -10 8 0 22 5 30 10 13 9 13 10 0 10 -8 0
-22 -5 -30 -10z"/>
<path d="M265 970 c-3 -5 1 -10 9 -10 9 0 16 5 16 10 0 6 -4 10 -9 10 -6 0
-13 -4 -16 -10z"/>
<path d="M60 963 c-33 -9 -60 -27 -60 -39 0 -9 12 -8 45 5 24 9 47 19 50 23 8
8 -17 16 -35 11z"/>
<path d="M227 964 c-8 -13 20 -41 30 -30 3 3 1 6 -5 6 -6 0 -12 8 -14 18 -2
11 -6 13 -11 6z"/>
<path d="M320 949 c0 -5 5 -7 10 -4 6 3 10 8 10 11 0 2 -4 4 -10 4 -5 0 -10
-5 -10 -11z"/>
<path d="M367 946 c-6 -16 2 -28 14 -20 12 7 11 34 0 34 -5 0 -11 -6 -14 -14z"/>
<path d="M408 953 c7 -3 16 -2 19 1 4 3 -2 6 -13 5 -11 0 -14 -3 -6 -6z"/>
<path d="M193 865 c5 -14 47 -19 47 -5 0 6 4 8 10 5 5 -3 18 -2 27 4 14 8 5
10 -34 8 -30 -1 -52 -6 -50 -12z"/>
</g>
</svg>
